<svg width="44" height="26" viewBox="0 0 44 26" fill="none" xmlns="http://www.w3.org/2000/svg">
<g clip-path="url(#clip0_76_1321)">
<rect x="-0.0416565" y="7" width="10" height="16" fill="#CE1818"/>
<path d="M3.77866 18L6.181 13.3672V13.3008H3.33725V12.3594H7.3685V13.3125L5.01303 18H3.77866Z" fill="white"/>
</g>
<g clip-path="url(#clip1_76_1321)">
<rect x="10.9583" y="7" width="10" height="16" fill="#CE1818"/>
<path d="M14.7787 18L17.181 13.3672V13.3008H14.3372V12.3594H18.3685V13.3125L16.013 18H14.7787Z" fill="white"/>
</g>
<g clip-path="url(#clip2_76_1321)">
<rect x="22.9583" y="7" width="9" height="16" fill="#CE1818"/>
<path d="M25.7787 18L28.181 13.3672V13.3008H25.3372V12.3594H29.3685V13.3125L27.013 18H25.7787Z" fill="white"/>
</g>
<path d="M34.5916 14.125C34.2189 14.125 33.9166 14.4272 33.9166 14.8C33.9166 15.1728 34.2189 15.475 34.5916 15.475V14.125ZM39.9916 14.8V15.475C40.3644 15.475 40.6666 15.1728 40.6666 14.8H39.9916ZM36.3916 4C36.3916 5.98823 38.0034 7.6 39.9916 7.6C41.9799 7.6 43.5916 5.98823 43.5916 4C43.5916 2.01177 41.9799 0.4 39.9916 0.4C38.0034 0.4 36.3916 2.01177 36.3916 4ZM34.5916 15.475H39.9916V14.125H34.5916V15.475ZM40.6666 14.8V4H39.3166V14.8H40.6666Z" fill="#CE1818"/>
<defs>
<clipPath id="clip0_76_1321">
<rect x="0.19165" y="6.80002" width="9.6" height="16" rx="2.4" fill="white"/>
</clipPath>
<clipPath id="clip1_76_1321">
<rect x="11.3916" y="6.80002" width="9.6" height="16" rx="2.4" fill="white"/>
</clipPath>
<clipPath id="clip2_76_1321">
<rect x="22.5916" y="6.80002" width="9.6" height="16" rx="2.4" fill="white"/>
</clipPath>
</defs>
</svg>
