<svg width="12" height="12" viewBox="0 0 12 12" fill="none" xmlns="http://www.w3.org/2000/svg">
<path d="M3.23077 0C2.97646 0 2.76923 0.207231 2.76923 0.461538V1.84615C2.76923 2.10046 2.97646 2.30769 3.23077 2.30769C3.48508 2.30769 3.69231 2.10046 3.69231 1.84615V0.461538C3.69231 0.207231 3.48508 0 3.23077 0ZM8.76923 0C8.51492 0 8.30769 0.207231 8.30769 0.461538V1.84615C8.30769 2.10046 8.51492 2.30769 8.76923 2.30769C9.02354 2.30769 9.23077 2.10046 9.23077 1.84615V0.461538C9.23077 0.207231 9.02354 0 8.76923 0ZM1.38462 0.923077C0.620308 0.923077 0 1.54338 0 2.30769V10.6154C0 11.3797 0.620308 12 1.38462 12H10.6154C11.3797 12 12 11.3797 12 10.6154V2.30769C12 1.54338 11.3797 0.923077 10.6154 0.923077H9.69231V1.84615C9.69231 2.09097 9.59505 2.32576 9.42194 2.49887C9.24883 2.67198 9.01405 2.76923 8.76923 2.76923C8.52442 2.76923 8.28963 2.67198 8.11652 2.49887C7.94341 2.32576 7.84615 2.09097 7.84615 1.84615V0.923077H4.15385V1.84615C4.15385 2.09097 4.05659 2.32576 3.88348 2.49887C3.71037 2.67198 3.47558 2.76923 3.23077 2.76923C2.98595 2.76923 2.75117 2.67198 2.57806 2.49887C2.40494 2.32576 2.30769 2.09097 2.30769 1.84615V0.923077H1.38462ZM0.923077 4.15385H11.0769V10.6154C11.0769 10.8697 10.8697 11.0769 10.6154 11.0769H1.38462C1.13031 11.0769 0.923077 10.8697 0.923077 10.6154V4.15385ZM4.15385 5.53846V6.606H6.37523L4.62969 10.1395H6.23077L7.83185 6.24508V5.53846H4.15385Z" fill="#2AE626"/>
</svg>
