<svg width="32" height="32" viewBox="0 0 32 32" fill="none" xmlns="http://www.w3.org/2000/svg">
<g clip-path="url(#clip0_76_1023)">
<path d="M16 32C24.3456 32 31.1111 25.2345 31.1111 16.8889C31.1111 8.54328 24.3456 1.7778 16 1.7778C7.65433 1.7778 0.888855 8.54328 0.888855 16.8889C0.888855 25.2345 7.65433 32 16 32Z" fill="#F4900C"/>
<path d="M16 30.2222C24.3456 30.2222 31.1111 23.4567 31.1111 15.1111C31.1111 6.76547 24.3456 0 16 0C7.65433 0 0.888855 6.76547 0.888855 15.1111C0.888855 23.4567 7.65433 30.2222 16 30.2222Z" fill="#FFCC4D"/>
<path d="M16.0001 28.4445C22.873 28.4445 28.4446 22.8729 28.4446 16C28.4446 9.12716 22.873 3.55559 16.0001 3.55559C9.12723 3.55559 3.55566 9.12716 3.55566 16C3.55566 22.8729 9.12723 28.4445 16.0001 28.4445Z" fill="#FFE8B6"/>
<path d="M16.0001 27.5556C22.873 27.5556 28.4446 21.984 28.4446 15.1111C28.4446 8.23824 22.873 2.66667 16.0001 2.66667C9.12723 2.66667 3.55566 8.23824 3.55566 15.1111C3.55566 21.984 9.12723 27.5556 16.0001 27.5556Z" fill="#FFAC33"/>
</g>
<defs>
<clipPath id="clip0_76_1023">
<rect width="32" height="32" fill="white"/>
</clipPath>
</defs>
</svg>
