<svg width="14" height="15" viewBox="0 0 14 15" fill="none" xmlns="http://www.w3.org/2000/svg">
<path opacity="0.5" d="M6.99999 9.83334C3.63999 9.83334 3.04499 6.48501 2.93999 3.82851C2.91024 3.09001 2.89566 2.72017 3.17333 2.37892C3.45041 2.03709 3.78233 1.98109 4.44674 1.86909C5.29072 1.73077 6.14476 1.66306 6.99999 1.66667C8.04066 1.66667 8.89758 1.75825 9.55324 1.86909C10.2177 1.98109 10.5496 2.03709 10.8272 2.37892C11.1049 2.72075 11.0897 3.09001 11.0606 3.82851C10.9556 6.48442 10.3606 9.83334 7.00058 9.83334" fill="#FFFCFA"/>
<path d="M10.29 7.74619L11.9333 6.83327C12.3719 6.58944 12.5913 6.46752 12.7126 6.26219C12.8334 6.05685 12.8334 5.80602 12.8334 5.30377V5.26119C12.8334 4.65277 12.8334 4.34827 12.6683 4.11902C12.5032 3.88977 12.2144 3.79352 11.6369 3.60102L11.0834 3.41669L11.0734 3.46627C11.0705 3.57652 11.0659 3.69669 11.0606 3.82852C11.0093 5.12644 10.8407 6.58944 10.2906 7.74619M2.94002 3.82852C2.99077 5.12644 3.15935 6.58944 3.71002 7.74619L2.06677 6.83327C1.6281 6.58944 1.40819 6.46752 1.28744 6.26219C1.16669 6.05685 1.16669 5.80602 1.16669 5.30377V5.26119C1.16669 4.65277 1.16669 4.34827 1.33177 4.11902C1.49685 3.88977 1.7856 3.79352 2.3631 3.60102L2.91669 3.41669L2.9266 3.46744C2.92952 3.5771 2.93419 3.69727 2.93944 3.8291" fill="#FFFCFA"/>
<path fill-rule="evenodd" clip-rule="evenodd" d="M3.0625 13.3333C3.0625 13.2173 3.10859 13.106 3.19064 13.024C3.27269 12.9419 3.38397 12.8958 3.5 12.8958H10.5C10.616 12.8958 10.7273 12.9419 10.8094 13.024C10.8914 13.106 10.9375 13.2173 10.9375 13.3333C10.9375 13.4494 10.8914 13.5607 10.8094 13.6427C10.7273 13.7248 10.616 13.7708 10.5 13.7708H3.5C3.38397 13.7708 3.27269 13.7248 3.19064 13.6427C3.10859 13.5607 3.0625 13.4494 3.0625 13.3333Z" fill="#FFFCFA"/>
<path opacity="0.5" d="M9.01718 12.8958H4.98285L5.1561 11.875C5.18252 11.7428 5.25391 11.6239 5.35813 11.5384C5.46235 11.4529 5.59296 11.4061 5.72777 11.406H8.27168C8.40649 11.4061 8.5371 11.4529 8.64132 11.5384C8.74554 11.6239 8.81693 11.7428 8.84335 11.875L9.01718 12.8958Z" fill="#FFFCFA"/>
<path d="M7 9.83334C6.84833 9.83334 6.7025 9.82692 6.5625 9.81351V11.406H7.4375V9.81351C7.29206 9.82698 7.14606 9.8336 7 9.83334Z" fill="#FFFCFA"/>
</svg>
