<svg width="26" height="24" viewBox="0 0 26 24" fill="none" xmlns="http://www.w3.org/2000/svg">
<path d="M20.108 0.500778C21.0967 0.500778 21.9785 1.50498 21.9785 2.8539C21.9785 4.20763 21.0967 5.20702 20.108 5.20702C19.1193 5.20702 18.2374 4.20763 18.2374 2.8539C18.2374 1.50498 19.1193 0.500778 20.108 0.500778ZM13.0053 0.500778C13.9887 0.500778 14.8758 1.50498 14.8758 2.8539C14.8758 4.20763 13.9887 5.20702 13.0053 5.20702C12.0166 5.20702 11.1294 4.20763 11.1294 2.8539C11.1294 1.50498 12.0166 0.500778 13.0053 0.500778ZM5.89731 0.500778C6.88601 0.500778 7.76783 1.50498 7.76783 2.8539C7.76783 4.20763 6.88601 5.20702 5.89731 5.20702C4.9086 5.20702 4.02197 4.20763 4.02197 2.8539C4.02197 1.50498 4.9086 0.500778 5.89731 0.500778ZM13.0053 6.32934C16.4257 6.43623 19.3117 6.43623 22.7748 6.5538C24.4262 7.5051 25.1905 12.3792 25.1424 14.0733L24.2017 15.0193C23.7902 12.7319 23.2718 9.68025 22.4114 9.00152V13.6832L22.6305 23.5008H21.4441L20.5515 13.6297H19.5896L18.6971 23.5008H17.5053L17.7297 13.6832L17.3022 8.95342H15.7363L15.3515 13.6672L15.5759 23.4847H14.3842L13.4863 13.6137H12.5243L11.6265 23.4847H10.44L10.6645 13.6672L10.2743 8.95342H8.70844L8.28089 13.6832L8.50536 23.5008H7.31356L6.42105 13.6297H5.45907L4.55641 23.5008H3.36996L3.59442 13.6832V9.00152C2.72864 9.68025 2.21023 12.7319 1.79872 15.0193L0.858108 14.0733C0.810009 12.3792 1.5796 7.5051 3.22566 6.5538C6.69896 6.43623 9.58492 6.43623 13.0053 6.32934Z" fill="#FBB92D"/>
</svg>
