<svg width="41" height="25" viewBox="0 0 41 25" fill="none" xmlns="http://www.w3.org/2000/svg">
<g clip-path="url(#clip0_76_988)">
<rect x="-0.031189" y="6.6875" width="9.375" height="15" fill="#4C4A51"/>
<path d="M3.55035 17.4375L5.80255 13.0942V13.032H3.13654V12.1494H6.91583V13.043L4.70758 17.4375H3.55035Z" fill="white"/>
</g>
<g clip-path="url(#clip1_76_988)">
<rect x="10.2813" y="6.6875" width="9.375" height="15" fill="#4C4A51"/>
<path d="M13.8629 17.4375L16.1151 13.0942V13.032H13.449V12.1494H17.2283V13.043L15.0201 17.4375H13.8629Z" fill="white"/>
</g>
<g clip-path="url(#clip2_76_988)">
<rect x="21.5312" y="6.6875" width="8.4375" height="15" fill="#4C4A51"/>
<path d="M24.1753 17.4375L26.4275 13.0942V13.032H23.7615V12.1494H27.5408V13.043L25.3325 17.4375H24.1753Z" fill="white"/>
</g>
<path d="M32.4375 13.3672C32.088 13.3672 31.8047 13.6505 31.8047 14C31.8047 14.3495 32.088 14.6328 32.4375 14.6328V13.3672ZM37.5 14V14.6328C37.8495 14.6328 38.1328 14.3495 38.1328 14H37.5ZM34.125 3.875C34.125 5.73896 35.636 7.25 37.5 7.25C39.364 7.25 40.875 5.73896 40.875 3.875C40.875 2.01104 39.364 0.5 37.5 0.5C35.636 0.5 34.125 2.01104 34.125 3.875ZM32.4375 14.6328H37.5V13.3672H32.4375V14.6328ZM38.1328 14V3.875H36.8672V14H38.1328Z" fill="#4C4A51"/>
<defs>
<clipPath id="clip0_76_988">
<rect x="0.1875" y="6.50003" width="9" height="15" rx="2.25" fill="white"/>
</clipPath>
<clipPath id="clip1_76_988">
<rect x="10.6875" y="6.50003" width="9" height="15" rx="2.25" fill="white"/>
</clipPath>
<clipPath id="clip2_76_988">
<rect x="21.1874" y="6.50003" width="9" height="15" rx="2.25" fill="white"/>
</clipPath>
</defs>
</svg>
