<svg width="26" height="27" viewBox="0 0 26 27" fill="none" xmlns="http://www.w3.org/2000/svg">
  <path d="M23.0079 21.7992C23.0023 21.7952 23.0014 21.7873 23.0057 21.7821C24.3359 20.1798 25.2612 18.2816 25.7036 16.2472C26.1469 14.2087 26.0923 12.0935 25.5444 10.0805C24.9965 8.06758 23.9714 6.21608 22.5559 4.68267C21.1404 3.14927 19.3761 1.97906 17.4123 1.27104C15.4484 0.563016 13.3427 0.338016 11.2734 0.61507C9.20415 0.892124 7.23207 1.66308 5.52404 2.86272C3.81601 4.06236 2.42228 5.6554 1.46075 7.50706C0.49922 9.35873 -0.00182371 11.4145 4.9878e-06 13.5006C0.000785102 16.5291 1.06745 19.4607 3.01309 21.7824C3.01743 21.7876 3.01679 21.7953 3.01164 21.7997C3.0065 21.8041 3.00584 21.8118 3.01021 21.8169C3.07334 21.8909 3.14442 21.9555 3.20865 22.0295C3.29229 22.1251 3.38242 22.2152 3.46884 22.308C3.72779 22.5909 3.99726 22.8602 4.27727 23.1158C4.364 23.1926 4.45073 23.2674 4.53746 23.3405C4.83482 23.5974 5.14146 23.8394 5.4574 24.0665C5.49677 24.0934 5.5327 24.1279 5.57181 24.1562C5.57371 24.1575 5.57635 24.1562 5.57635 24.1538C5.57635 24.1515 5.57899 24.1501 5.58091 24.1515C7.75628 25.6798 10.3508 26.5 13.0102 26.5C15.6696 26.5 18.2642 25.6798 20.4395 24.1515C20.4415 24.1501 20.4441 24.1515 20.4441 24.1538C20.4441 24.1562 20.4467 24.1575 20.4486 24.1562C20.4877 24.1279 20.5228 24.0934 20.563 24.0665C20.879 23.8388 21.1856 23.5967 21.483 23.3405C21.5697 23.2668 21.6565 23.1919 21.7432 23.1158C22.0226 22.8602 22.292 22.5909 22.5516 22.308C22.638 22.2152 22.7272 22.1251 22.8118 22.0295C22.8751 21.9556 22.9469 21.8911 23.01 21.8163C23.0144 21.8111 23.0134 21.8033 23.0079 21.7992ZM13.0093 6.07289C13.8363 6.07289 14.6448 6.31793 15.3324 6.77702C16.0201 7.23612 16.5561 7.88865 16.8726 8.65209C17.189 9.41554 17.2719 10.2556 17.1105 11.0661C16.9492 11.8766 16.5509 12.621 15.9661 13.2053C15.3813 13.7897 14.6362 14.1876 13.8251 14.3488C13.0139 14.51 12.1732 14.4273 11.4091 14.111C10.645 13.7948 9.99193 13.2593 9.53246 12.5722C9.07298 11.8851 8.82774 11.0773 8.82774 10.251C8.82774 9.14288 9.2683 8.08017 10.0525 7.29662C10.8367 6.51308 11.9003 6.07289 13.0093 6.07289ZM7.02196 22.8896C6.05178 22.2682 5.50204 21.0889 5.95523 20.0297C6.18966 19.4818 6.52972 18.979 6.96217 18.5523C7.83045 17.6957 9.00137 17.2151 10.2216 17.2145H15.797C17.0172 17.2151 18.1881 17.6957 19.0564 18.5523C19.4889 18.979 19.8289 19.4818 20.0634 20.0297C20.5166 21.0889 19.9668 22.2682 18.9966 22.8896C17.2203 24.0272 15.1442 24.6423 13.0093 24.6423C10.8743 24.6423 8.79831 24.0272 7.02196 22.8896Z" fill="#DFDFDF" />
</svg>