<svg width="96" height="74" viewBox="0 0 96 74" fill="none" xmlns="http://www.w3.org/2000/svg">
<path fill-rule="evenodd" clip-rule="evenodd" d="M84.2232 62.8788L88.0955 69.5859L7.74466 69.5859L11.617 62.8788L84.2232 62.8788ZM80.3508 56.1717L76.4785 49.4646L19.3616 49.4646L15.4893 56.1717L80.3508 56.1717ZM68.7338 36.0505L72.6062 42.7576L23.234 42.7576L27.1063 36.0505L68.7338 36.0505ZM64.8615 29.3434L60.9892 22.6364L34.851 22.6364L30.9786 29.3434L64.8615 29.3434ZM53.2445 9.22222L57.1168 15.9293L38.7233 15.9293L42.5956 9.22222L53.2445 9.22222ZM49.3722 2.51515L47.9201 0L46.4679 2.51515L49.3722 2.51515ZM0 83L3.87233 76.2929L91.9678 76.2929L95.8401 83L0 83Z" fill="#6202FF"/>
</svg>
