<svg width="19" height="16" viewBox="0 0 19 16" fill="none" xmlns="http://www.w3.org/2000/svg">
<path d="M14.575 0.844357C14.9299 0.42161 15.4381 0.157148 15.988 0.109148C16.5378 0.0611475 17.0842 0.233542 17.507 0.588406C17.9297 0.943271 18.1942 1.45154 18.2422 2.00139C18.2902 2.55125 18.1178 3.09765 17.7629 3.52039L8.39993 14.6782C8.22644 14.894 8.01161 15.0731 7.76803 15.2048C7.52445 15.3366 7.25702 15.4184 6.98141 15.4455C6.70581 15.4726 6.42757 15.4443 6.16301 15.3625C5.89845 15.2807 5.65288 15.1468 5.44071 14.9689C5.22853 14.7909 5.05401 14.5724 4.92738 14.3261C4.80075 14.0798 4.72455 13.8107 4.70324 13.5346C4.68194 13.2585 4.71597 12.9809 4.80333 12.7181C4.89069 12.4553 5.02962 12.2126 5.21199 12.0042L14.575 0.844357ZM0.250084 8.15456C0.250084 7.60267 0.469321 7.07338 0.859565 6.68314C1.24981 6.29289 1.77909 6.07366 2.33098 6.07366C2.88287 6.07366 3.41216 6.29289 3.8024 6.68314C4.19265 7.07338 4.41188 7.60267 4.41188 8.15456C4.41188 8.70645 4.19265 9.23573 3.8024 9.62597C3.41216 10.0162 2.88287 10.2355 2.33098 10.2355C1.77909 10.2355 1.24981 10.0162 0.859565 9.62597C0.469321 9.23573 0.250084 8.70645 0.250084 8.15456Z" fill="#FFAC33"/>
</svg>
