<svg width="28" height="28" viewBox="0 0 28 28" fill="none" xmlns="http://www.w3.org/2000/svg">
  <g clip-path="url(#clip0_122_754)">
    <path d="M14 0C6.2685 0 0 6.2685 0 14C0 21.7315 6.2685 28 14 28C21.7315 28 28 21.7315 28 14C28 6.2685 21.7315 0 14 0ZM9.219 7.81317H18.781C20.5368 7.81317 21.6533 9.7125 20.7702 11.2432L14.868 21.469C14.7798 21.6211 14.6532 21.7474 14.5009 21.8351C14.3485 21.9229 14.1758 21.9691 14 21.9691C13.8242 21.9691 13.6515 21.9229 13.4991 21.8351C13.3468 21.7474 13.2202 21.6211 13.132 21.469L7.23217 11.2432C6.34783 9.71017 7.462 7.81317 9.219 7.81317ZM14.8703 9.5585V18.4018L16.156 15.9192L19.2547 10.3705C19.3021 10.2876 19.3268 10.1937 19.3263 10.0982C19.3259 10.0027 19.3002 9.90901 19.2519 9.82662C19.2036 9.74423 19.1344 9.67605 19.0513 9.62898C18.9682 9.5819 18.8742 9.55759 18.7787 9.5585H14.8703ZM9.21667 9.56083C9.12138 9.5598 9.0275 9.58394 8.94453 9.63081C8.86156 9.67769 8.79243 9.74563 8.74413 9.82778C8.69584 9.90994 8.67008 10.0034 8.66947 10.0987C8.66887 10.194 8.69342 10.2877 8.74067 10.3705L11.8417 15.9168L13.1273 18.4018V9.56083H9.21667Z" fill="#007AFF" />
  </g>
  <defs>
    <clipPath id="clip0_122_754">
      <rect width="28" height="28" rx="14" fill="white" />
    </clipPath>
  </defs>
</svg>